<?xml version="1.0" encoding="utf-8"?>
<!-- Generator: Adobe Illustrator 16.0.4, SVG Export Plug-In . SVG Version: 6.00 Build 0)  -->
<!DOCTYPE svg PUBLIC "-//W3C//DTD SVG 1.1//EN" "http://www.w3.org/Graphics/SVG/1.1/DTD/svg11.dtd">
<svg version="1.1" id="Layer_1" xmlns="http://www.w3.org/2000/svg" xmlns:xlink="http://www.w3.org/1999/xlink" x="0px" y="0px"
	 width="64px" height="64px" viewBox="0 0 64 64" enable-background="new 0 0 64 64" xml:space="preserve">
<g>
	<polygon fill="#666666" points="6.49,27.31 5.326,26.255 0,31.473 0,32.527 5.326,37.744 6.436,36.689 2.545,32.745 20.125,32.745 
		20.125,31.255 2.545,31.255 	"/>
	<polygon fill="#666666" points="45.573,32.684 61.67,32.684 58.059,36.295 59.123,37.26 64,32.482 64,31.518 59.123,26.74 
		58.107,27.705 61.67,31.317 45.573,31.317 	"/>
	<polygon fill="#666666" points="31.44,0 25.898,5.657 27.018,6.835 31.208,2.703 31.208,21.375 32.792,21.375 32.792,2.703 
		36.982,6.893 38.102,5.657 32.561,0 	"/>
	<polygon fill="#666666" points="31.222,43 31.222,61.345 27.105,57.229 26.006,58.441 31.45,64 32.55,64 37.994,58.441 
		36.895,57.285 32.777,61.345 32.777,43 	"/>
</g>
<g>
	<path fill="#999999" stroke="#999999" stroke-miterlimit="10" d="M23.434,25.364v7.202c0,2.701,1.206,3.854,2.827,3.854
		c1.783,0,2.953-1.188,2.953-3.854v-7.202h1.584v7.095c0,3.727-1.962,5.239-4.591,5.239c-2.484,0-4.357-1.404-4.357-5.188v-7.146
		H23.434z"/>
	<path fill="#999999" stroke="#999999" stroke-miterlimit="10" d="M36.18,37.5L32.2,25.364h1.71l1.891,5.978
		c0.506,1.639,0.955,3.133,1.299,4.538h0.033c0.344-1.405,0.829-2.937,1.389-4.52l2.054-5.996h1.675L37.907,37.5H36.18z"/>
</g>
<g>
	<path fill="#6699CC" stroke="#6699CC" stroke-miterlimit="10" d="M24.184,26.364v7.202c0,2.701,1.206,3.854,2.827,3.854
		c1.783,0,2.953-1.188,2.953-3.854v-7.202h1.584v7.095c0,3.727-1.962,5.239-4.591,5.239c-2.484,0-4.357-1.404-4.357-5.188v-7.146
		H24.184z"/>
	<path fill="#6699CC" stroke="#6699CC" stroke-miterlimit="10" d="M36.93,38.5L32.95,26.364h1.71l1.891,5.978
		c0.506,1.639,0.955,3.133,1.299,4.538h0.033c0.344-1.405,0.829-2.937,1.389-4.521l2.054-5.995H43L38.657,38.5H36.93z"/>
</g>
</svg>
